<svg width="40" height="43" viewBox="0 0 40 43" fill="none" xmlns="http://www.w3.org/2000/svg">
<path fill-rule="evenodd" clip-rule="evenodd" d="M23.0174 1.20623C22.1694 0.42796 21.0882 0 19.97 0C18.8518 0 17.7706 0.42796 16.9226 1.20623C16.3842 1.69859 15.8489 2.19483 15.3167 2.69493C14.6224 2.54552 13.9271 2.40112 13.2309 2.26174C12.1315 2.03987 10.9941 2.24632 10.0251 2.84359C9.05621 3.44086 8.32007 4.38934 7.95041 5.51675C7.71229 6.24076 7.48084 6.9607 7.25606 7.67658C6.57029 7.92063 5.88356 8.17281 5.19589 8.43313C4.13989 8.82779 3.25149 9.61371 2.69205 10.6482C2.13261 11.6826 1.93924 12.897 2.14706 14.0707C2.2804 14.8231 2.41756 15.5705 2.55852 16.3129C2.08229 16.8904 1.60606 17.4751 1.12983 18.067C0.400853 18.9723 0 20.1266 0 21.3204C0 22.5143 0.400853 23.6686 1.12983 24.5739C1.60606 25.1698 2.0861 25.7576 2.56995 26.3372C2.42517 27.0978 2.28421 27.8635 2.14706 28.6343C1.71845 31.0626 3.01284 33.4543 5.19589 34.2718C5.88356 34.5321 6.57029 34.7843 7.25606 35.0284C7.48275 35.7443 7.7142 36.4642 7.95041 37.1882C8.31953 38.3162 9.05545 39.2653 10.0244 39.8632C10.9934 40.4611 12.1311 40.668 13.2309 40.4463C13.9471 40.3019 14.6595 40.1524 15.3682 39.9978C15.8997 40.5022 16.4378 41.0025 16.9826 41.4987C18.7342 43.1094 21.3258 43.1094 23.0774 41.4987C23.6203 41.0045 24.1556 40.5083 24.6833 40.01C25.3747 40.1585 26.07 40.3039 26.7691 40.4463C29.0408 40.9039 31.2838 39.5189 32.0496 37.1882C32.2877 36.4642 32.5192 35.7443 32.7439 35.0284C33.4297 34.7843 34.1164 34.5321 34.8041 34.2718C35.8596 33.8766 36.7473 33.0904 37.3062 32.056C37.8651 31.0217 38.0581 29.8076 37.8501 28.6343C37.7186 27.8859 37.5824 27.1385 37.4415 26.3921C37.9177 25.8145 38.3939 25.2298 38.8702 24.638C39.5991 23.7327 40 22.5784 40 21.3845C40 20.1906 39.5991 19.0363 38.8702 18.131C38.3939 17.5388 37.9139 16.95 37.4301 16.3647C37.5748 15.6041 37.7148 14.8394 37.8501 14.0707C38.0581 12.8973 37.8651 11.6833 37.3062 10.6489C36.7473 9.61452 35.8596 8.82836 34.8041 8.43313C34.119 8.17596 33.4323 7.92377 32.7439 7.67658C32.5173 6.95867 32.2858 6.23872 32.0496 5.51675C31.6799 4.38934 30.9438 3.44086 29.9749 2.84359C29.0059 2.24632 27.8685 2.03987 26.7691 2.26174C26.0548 2.4041 25.3424 2.55257 24.6318 2.70713C24.0968 2.20299 23.5587 1.70268 23.0174 1.20623ZM19.2485 4.09516C19.4487 3.91093 19.7043 3.80959 19.9686 3.80959C20.2329 3.80959 20.4884 3.91093 20.6886 4.09516C21.4468 4.79273 22.1926 5.49031 22.926 6.18788C23.3489 6.59056 23.926 6.75529 24.4804 6.63327C25.4519 6.41566 26.4358 6.2072 27.4321 6.00789C27.6915 5.95561 27.96 6.00443 28.1886 6.1455C28.4172 6.28657 28.5908 6.51052 28.6779 6.77665C29.0093 7.78538 29.3284 8.787 29.6351 9.7815C29.8123 10.355 30.2352 10.8065 30.7723 10.9956C31.7172 11.3271 32.6668 11.6729 33.6212 12.0329C34.1355 12.225 34.4441 12.7894 34.3412 13.3629C34.1526 14.4286 33.9564 15.4831 33.7526 16.5264C33.6963 16.8191 33.7047 17.1217 33.7771 17.4103C33.8495 17.699 33.984 17.9656 34.1698 18.189C34.8365 18.9821 35.5004 19.7916 36.1614 20.6173C36.3339 20.831 36.4289 21.1038 36.4289 21.386C36.4289 21.6682 36.3339 21.941 36.1614 22.1548C35.5042 22.9724 34.8441 23.7777 34.1812 24.5709C33.9958 24.794 33.8616 25.0601 33.7892 25.3481C33.7168 25.6361 33.7082 25.9382 33.764 26.2304C33.964 27.2554 34.1564 28.2926 34.3412 29.342C34.3909 29.6195 34.3456 29.9068 34.2134 30.1515C34.0812 30.3963 33.871 30.5821 33.6212 30.6751C32.6687 31.0331 31.7191 31.3778 30.7723 31.7093C30.5076 31.8037 30.267 31.9625 30.0697 32.1732C29.8723 32.384 29.7235 32.6408 29.6351 32.9235C29.3265 33.92 29.0074 34.9216 28.6779 35.9283C28.5908 36.1944 28.4172 36.4184 28.1886 36.5595C27.96 36.7005 27.6915 36.7493 27.4321 36.6971C26.4625 36.5026 25.4948 36.2982 24.529 36.0839C24.2553 36.0243 23.9723 36.0335 23.7025 36.1108C23.4327 36.1881 23.1835 36.3314 22.9745 36.5293C22.2469 37.2248 21.5058 37.9183 20.7515 38.6098C20.5513 38.794 20.2957 38.8954 20.0314 38.8954C19.7671 38.8954 19.5116 38.794 19.3114 38.6098C18.5593 37.9199 17.8135 37.2223 17.074 36.5171C16.8651 36.3192 16.6158 36.1759 16.346 36.0986C16.0763 36.0213 15.7933 36.0121 15.5196 36.0717C14.5481 36.2893 13.5642 36.4977 12.5679 36.6971C12.3085 36.7493 12.04 36.7005 11.8114 36.5595C11.5828 36.4184 11.4092 36.1944 11.3221 35.9283C10.9907 34.9216 10.6716 33.92 10.3649 32.9235C10.2765 32.6408 10.1277 32.384 9.93034 32.1732C9.73297 31.9625 9.49241 31.8037 9.22766 31.7093C8.28281 31.3778 7.33321 31.0321 6.37884 30.6721C6.12957 30.5791 5.91981 30.3938 5.78767 30.1497C5.65554 29.9056 5.60981 29.619 5.65878 29.342C5.84547 28.2743 6.04167 27.2188 6.2474 26.1755C6.30324 25.8833 6.29461 25.5812 6.2222 25.2932C6.1498 25.0051 6.0156 24.7391 5.83023 24.516C5.1635 23.7228 4.49964 22.9134 3.83863 22.0877C3.66607 21.8739 3.57115 21.6011 3.57115 21.3189C3.57115 21.0367 3.66607 20.7639 3.83863 20.5502C4.49583 19.7326 5.15588 18.9272 5.8188 18.1341C6.00417 17.911 6.13837 17.6449 6.21077 17.3569C6.28318 17.0688 6.29181 16.7668 6.23597 16.4745C6.03596 15.4495 5.84356 14.4123 5.65878 13.3629C5.60906 13.0854 5.65443 12.7981 5.78662 12.5534C5.9188 12.3087 6.12899 12.1228 6.37884 12.0298C7.33321 11.6739 8.28186 11.3292 9.2248 10.9956C9.49008 10.9017 9.73121 10.743 9.9291 10.5323C10.127 10.3215 10.2762 10.0645 10.3649 9.7815C10.6697 8.787 10.9888 7.78538 11.3221 6.77665C11.4092 6.51052 11.5828 6.28657 11.8114 6.1455C12.04 6.00443 12.3085 5.95561 12.5679 6.00789C13.5433 6.20313 14.511 6.40752 15.471 6.62107C15.7443 6.68018 16.0267 6.67072 16.2959 6.59343C16.5652 6.51614 16.814 6.37313 17.0226 6.17568C17.7522 5.48014 18.4923 4.78663 19.2485 4.09516ZM27.1578 16.9443C27.5598 16.5316 27.7953 15.9677 27.8141 15.3726C27.833 14.7774 27.6338 14.1979 27.2588 13.7571C26.8838 13.3162 26.3626 13.0488 25.806 13.0117C25.2493 12.9745 24.701 13.1706 24.2775 13.5582C22.3516 15.4221 20.8772 17.1274 19.6257 19.2079C18.8592 20.5049 18.1959 21.8682 17.6427 23.2835L15.8254 21.2854C15.4253 20.8723 14.8904 20.6417 14.3338 20.6422C13.7773 20.6427 13.2428 20.8743 12.8434 21.2881C12.4439 21.7018 12.2109 22.2653 12.1937 22.8591C12.1764 23.453 12.3762 24.0308 12.7508 24.4702L16.9055 29.0461C17.1599 29.3266 17.4774 29.5329 17.8276 29.6454C18.1779 29.7579 18.5492 29.7728 18.9064 29.6887C19.2636 29.6046 19.5946 29.4243 19.8681 29.165C20.1415 28.9057 20.3483 28.5759 20.4686 28.2072C21.4201 25.2878 22.2516 23.3171 23.2346 21.6789C24.2118 20.0499 25.3947 18.6527 27.1578 16.9474" fill="#143C7A"/>
</svg>
