<svg width="40" height="44" viewBox="0 0 40 44" fill="none" xmlns="http://www.w3.org/2000/svg">
<path d="M33.3334 17.7501C33.3334 28.5834 20 37.7501 20 37.7501C20 37.7501 6.66669 28.5834 6.66669 17.7501C6.66669 14.2139 8.07145 10.8225 10.5719 8.32199C13.0724 5.82151 16.4638 4.41675 20 4.41675C23.5362 4.41675 26.9276 5.82151 29.4281 8.32199C31.9286 10.8225 33.3334 14.2139 33.3334 17.7501Z" stroke="#143C7A" stroke-width="8.83333"/>
<path d="M25 17.7502C25 19.0763 24.4732 20.3481 23.5355 21.2858C22.5978 22.2235 21.3261 22.7502 20 22.7502C18.6739 22.7502 17.4021 22.2235 16.4645 21.2858C15.5268 20.3481 15 19.0763 15 17.7502C15 16.4242 15.5268 15.1524 16.4645 14.2147C17.4021 13.277 18.6739 12.7502 20 12.7502C21.3261 12.7502 22.5978 13.277 23.5355 14.2147C24.4732 15.1524 25 16.4242 25 17.7502Z" stroke="#143C7A" stroke-width="8.83333"/>
</svg>
