<svg width="40" height="40" viewBox="0 0 40 40" fill="none" xmlns="http://www.w3.org/2000/svg">
<path d="M19.9731 1.77734C9.72521 1.77734 1.40123 4.38094 1.40123 7.58547C1.40139 9.33469 3.93326 10.9128 7.85154 11.9777C6.49162 11.2816 5.70076 10.4764 5.70076 9.59719C5.70076 7.08719 12.0875 5.02453 19.9731 5.02453C27.8587 5.02453 34.2895 7.08703 34.2895 9.59719C34.2895 10.4717 33.4848 11.2839 32.1387 11.9777C36.0327 10.913 38.5425 9.32844 38.5425 7.58547C38.5425 4.38094 30.2211 1.77734 19.9731 1.77734ZM11.5211 8.05422V10.4053H28.4179V8.05422H11.5211ZM11.8628 11.8652V28.2766H13.3227V11.8652H11.8629L11.8628 11.8652ZM14.9194 11.8652C14.974 16.6942 16.8979 19.3991 19.0452 19.9756C16.8697 20.5596 14.9221 23.3272 14.9169 28.2764H24.9315C24.9264 23.327 22.9822 20.5603 20.8081 19.9756C22.954 19.3986 24.8745 16.6945 24.9292 11.8652H14.9194L14.9194 11.8652ZM26.4769 11.8652V28.2766H27.9369V11.8652H26.4769V11.8652ZM7.85154 28.1812C3.93334 29.2458 1.40131 30.824 1.40131 32.5732C1.40131 35.7777 9.72521 38.3813 19.9732 38.3813C30.2211 38.3813 38.5425 35.7778 38.5425 32.5734C38.5425 30.8304 36.0327 29.2458 32.1386 28.1812C33.4848 28.8749 34.2895 29.6846 34.2895 30.5591C34.2895 33.0693 27.8588 35.1344 19.9731 35.1344C12.0874 35.1344 5.70076 33.069 5.70076 30.559C5.70076 29.6798 6.49162 28.8771 7.85154 28.1811V28.1812ZM11.5211 29.7363V32.085H28.4179V29.7363H11.5211Z" fill="#143C7A"/>
</svg>
